<?xml version="1.0"?>
<!-- Generated by SVGo -->
<svg width="60" height="110"
     xmlns="http://www.w3.org/2000/svg"
     xmlns:xlink="http://www.w3.org/1999/xlink">
<polyline points="30,40 10,20 20,10 20,20 30,30 40,20 40,10 50,20 30,40" style="stroke:black" id="j1" />
<polyline points="30,60 10,40 10,30 30,50 50,30 50,40 30,60" style="stroke:black" id="m1" />
<polyline points="20,60 10,70 10,50 20,60" style="stroke:black" id="m2" />
<polyline points="40,60 50,50 50,70 40,60" style="stroke:black" id="m3" />
<polyline points="30,100 10,80 20,70 20,80 30,90 40,80 40,70 50,80 30,100" style="stroke:black" id="j2" />
</svg>
